<svg width="77" height="55" viewBox="0 0 77 55" fill="none" xmlns="http://www.w3.org/2000/svg">
<path d="M29.8795 38.1633L11.86 26.9388L29.8795 55L76.86 0L29.8795 38.1633Z" fill="#EE3465"/>
<path d="M10.32 11.58C13.02 11.58 15.25 12.29 17.01 13.71C18.79 15.13 19.94 17.05 20.46 19.47H15.03C14.63 18.49 14.01 17.72 13.17 17.16C12.35 16.6 11.37 16.32 10.23 16.32C8.73 16.32 7.52 16.87 6.6 17.97C5.68 19.07 5.22 20.54 5.22 22.38C5.22 24.22 5.68 25.69 6.6 26.79C7.52 27.87 8.73 28.41 10.23 28.41C11.37 28.41 12.35 28.13 13.17 27.57C14.01 27.01 14.63 26.25 15.03 25.29H20.46C19.94 27.69 18.79 29.61 17.01 31.05C15.25 32.47 13.02 33.18 10.32 33.18C8.26 33.18 6.45 32.73 4.89 31.83C3.33 30.91 2.12 29.63 1.26 27.99C0.42 26.35 0 24.48 0 22.38C0 20.28 0.42 18.41 1.26 16.77C2.12 15.13 3.33 13.86 4.89 12.96C6.45 12.04 8.26 11.58 10.32 11.58Z" fill="white"/>
<path d="M39.2351 24.18C39.2351 24.6 39.1851 25.06 39.0851 25.56H27.4751C27.5351 26.82 27.8551 27.73 28.4351 28.29C29.0151 28.83 29.7551 29.1 30.6551 29.1C31.4151 29.1 32.0451 28.91 32.5451 28.53C33.0451 28.15 33.3751 27.66 33.5351 27.06H38.9651C38.7451 28.24 38.2651 29.3 37.5251 30.24C36.7851 31.16 35.8451 31.89 34.7051 32.43C33.5651 32.95 32.2951 33.21 30.8951 33.21C29.2551 33.21 27.7951 32.87 26.5151 32.19C25.2551 31.49 24.2651 30.49 23.5451 29.19C22.8251 27.89 22.4651 26.37 22.4651 24.63C22.4651 22.87 22.8151 21.35 23.5151 20.07C24.2351 18.77 25.2351 17.78 26.5151 17.1C27.7951 16.4 29.2551 16.05 30.8951 16.05C32.5551 16.05 34.0151 16.39 35.2751 17.07C36.5351 17.75 37.5051 18.71 38.1851 19.95C38.8851 21.17 39.2351 22.58 39.2351 24.18ZM34.0451 23.4C34.0651 22.3 33.7651 21.48 33.1451 20.94C32.5451 20.38 31.7951 20.1 30.8951 20.1C29.9551 20.1 29.1751 20.38 28.5551 20.94C27.9351 21.5 27.5851 22.32 27.5051 23.4H34.0451Z" fill="white"/>
<path d="M47.0393 19.41C47.6793 18.39 48.4993 17.58 49.4993 16.98C50.5193 16.38 51.6193 16.08 52.7993 16.08V21.57H51.3293C49.9693 21.57 48.9093 21.86 48.1493 22.44C47.4093 23.02 47.0393 24 47.0393 25.38V33H41.9093V16.26H47.0393V19.41Z" fill="white"/>
<path d="M64.4264 28.59V33H62.1164C60.1564 33 58.6264 32.52 57.5264 31.56C56.4464 30.58 55.9064 28.97 55.9064 26.73V20.58H53.6564V16.26H55.9064V12.15H61.0364V16.26H64.3964V20.58H61.0364V26.82C61.0364 27.48 61.1664 27.94 61.4264 28.2C61.7064 28.46 62.1664 28.59 62.8064 28.59H64.4264Z" fill="white"/>
</svg>
